<?xml version="1.0" encoding="iso-8859-1"?>
<!-- Uploaded to: SVG Repo, www.svgrepo.com, Generator: SVG Repo Mixer Tools -->
<svg fill="#fff" height="800px" width="800px" version="1.1" id="Capa_1" xmlns="http://www.w3.org/2000/svg" xmlns:xlink="http://www.w3.org/1999/xlink" 
	 viewBox="0 0 612.003 612.003" xml:space="preserve">
<g>
	<g>
		<circle cx="252.598" cy="176.367" r="13.291"/>
		<circle cx="326.805" cy="176.367" r="13.291"/>
		<path d="M277.779,352.24c0.017-0.418,0.024-0.833,0.024-1.248c0-18.37-14.945-33.316-33.315-33.316s-33.316,14.945-33.316,33.316
			c0,17.641,13.782,32.122,31.143,33.246c4.038,8.698,12.82,14.468,22.661,14.468c13.79,0,25.009-11.219,25.009-25.009
			C289.985,364.854,285.223,356.699,277.779,352.24z M264.976,387.454c-6.237,0-11.7-4.22-13.285-10.261l-1.176-4.481l-4.623,0.295
			c-0.466,0.03-0.933,0.051-1.405,0.051c-12.166,0-22.064-9.898-22.064-22.064c0-12.166,9.898-22.064,22.064-22.064
			s22.062,9.898,22.062,22.064c0,1.198-0.104,2.429-0.308,3.656l-0.76,4.56l4.327,1.629c5.337,2.009,8.923,7.176,8.923,12.86
			C278.733,381.283,272.562,387.454,264.976,387.454z"/>
		<path d="M320.82,416.339c0,12.873,10.473,23.348,23.348,23.348c12.874,0,23.348-10.473,23.348-23.348
			c0-12.873-10.473-23.348-23.348-23.348C331.294,392.993,320.82,403.466,320.82,416.339z M356.262,416.339
			c0,6.669-5.425,12.095-12.095,12.095c-6.669,0-12.095-5.427-12.095-12.095s5.425-12.095,12.095-12.095
			C350.837,404.245,356.262,409.671,356.262,416.339z"/>
		<path d="M484.276,327.646c-17.001,0-32.917,4.031-46.514,11.023c0,0-81.039-81.705-82.524-83.021
			c16.738-16.942,26.335-39.753,26.629-63.69c11.963-2.827,20.708-13.493,20.708-26.296c0-12.813-8.748-23.486-20.715-26.311
			c-0.399-24.037-9.919-46.585-26.957-63.638c-17.416-17.416-40.574-27.009-65.208-27.009c-3.566,0-7.116,0.215-10.635,0.62
			c5.773-12.867,3.391-28.532-7.158-39.082C265.297,3.639,256.513,0,247.171,0s-18.127,3.639-24.732,10.244l-23.628,23.629
			l-12.468-12.468l-7.957,7.957l12.468,12.468l-23.237,23.237c-13.638,13.638-13.638,35.827,0,49.465
			c6.607,6.605,15.389,10.244,24.732,10.244c2.266,0,4.5-0.218,6.677-0.637c-0.918,4.995-1.416,10.082-1.502,15.221
			c-11.962,2.838-20.706,13.509-20.706,26.304c0,12.789,8.745,23.455,20.708,26.29c0.293,23.94,9.892,46.755,26.635,63.698
			c-4.971,4.407-117.331,118.454-117.331,118.454c-0.678,0.678-1.319,1.388-1.938,2.117l-12.807-12.807
			c3.995-5.164,6.38-11.632,6.38-18.651c0-16.844-13.703-30.547-30.547-30.547H37.374v30.547c0,16.844,13.703,30.547,30.547,30.547
			c5.761,0,11.154-1.605,15.758-4.389l15.264,15.264c-5.099,12.974-2.134,28.136,7.89,38.159
			c6.801,6.801,15.969,10.365,25.212,10.365c4.393,0,8.801-0.812,12.981-2.457l19.07,19.069l7.956-7.956l-17.081-17.082
			c0.727-0.619,1.436-1.26,2.115-1.94l33.802-33.802v75.82h28.539v145.637h140.545V466.365h28.554v-76.439l6,6
			c-0.385,2.885-0.605,5.813-0.605,8.785c0,7.21,1.17,14.35,3.477,21.225c2.931,8.736,11.232,14.607,20.651,14.607
			c2.173,0,4.339-0.315,6.439-0.933c2.791-0.823,5.707-1.159,8.681-0.987c12.229,0.702,22.432,10.402,23.733,22.567l0.027,0.264
			c1.059,10.949,9.7,19.402,20.549,20.103c2.255,0.145,4.542,0.217,6.797,0.217c49.822,0,90.354-34.571,90.354-77.064
			C574.631,362.217,534.097,327.646,484.276,327.646z M381.9,151.19c5.579,2.433,9.424,7.98,9.424,14.472
			c0,6.487-3.846,12.028-9.424,14.46V151.19z M197.496,180.115c-5.578-2.436-9.424-7.975-9.424-14.453
			c0-6.483,3.846-12.026,9.424-14.465V180.115z M67.919,364.058c-10.638,0-19.294-8.655-19.294-19.294V325.47h19.294
			c10.638,0,19.294,8.655,19.294,19.294C87.213,355.403,78.558,364.058,67.919,364.058z M297.298,60.314
			c18.862,1.679,36.097,9.804,49.647,23.355c9.524,9.532,16.378,21.021,20.194,33.557c-33.214,1.685-63.196-21.481-69.482-54.654
			C297.532,61.901,297.295,60.413,297.298,60.314z M285.774,60.064c-1.295,42.906-34.699,77.746-77.024,81.203v-0.346
			c0-7.525,1.032-14.928,3.051-22.041c1.878-1.262,3.647-2.713,5.282-4.348l51.876-51.877
			C274.434,61.205,280.069,60.337,285.774,60.064z M192.349,113.524c-6.337,0-12.295-2.467-16.776-6.949
			c-9.25-9.25-9.25-24.3,0-33.551l54.823-54.823c4.481-4.481,10.438-6.948,16.775-6.948s12.295,2.467,16.775,6.949
			c9.25,9.25,9.25,24.3,0,33.551l-54.821,54.823C204.643,111.057,198.686,113.524,192.349,113.524z M208.748,190.826v-38.286
			c39.753-2.955,73.239-31.073,84.379-68.209c12.979,26.684,40.36,44.245,70.6,44.245c1.968,0,3.951-0.079,5.941-0.229
			c0.64,4.124,0.976,8.323,0.976,12.575v49.905c0,23.304-10.053,45.496-27.582,60.882c-14.745,12.949-33.699,20.08-53.367,20.08
			c-19.66,0-38.606-7.131-53.353-20.08l-0.709-0.617C218.537,235.73,208.748,213.82,208.748,190.826z M333.307,272.086
			c-6.868,17.56-24.019,29.787-43.608,29.787c-19.599,0-36.75-12.239-43.607-29.811c13.306,7.148,28.262,10.98,43.607,10.98
			C305.041,283.042,320.003,279.227,333.307,272.086z M190.885,374.628l-41.759,41.759c-1.665,1.665-3.54,3.066-5.587,4.169
			c-9.378,5.099-21.201,3.381-28.753-4.168c-7.548-7.549-9.262-19.367-4.168-28.742c1.117-2.055,2.518-3.934,4.168-5.584
			l51.575-51.575l24.524,23.576V374.628z M190.885,329.6v8.856l-16.564-15.925l20.421-20.421
			C192.193,310.946,190.885,320.171,190.885,329.6z M231.256,600.747c2.54-11.787,13.285-21.394,26.122-21.394
			c12.836,0,23.583,9.607,26.122,21.394H231.256z M284.071,579.04c-6.861-6.776-16.294-10.94-26.693-10.94
			c-10.403,0-19.84,4.168-26.701,10.949V466.361h53.394V579.04z M295.901,600.747c2.54-11.787,13.285-21.394,26.122-21.394
			c12.838,0,23.581,9.607,26.122,21.394H295.901z M348.717,579.041c-6.861-6.777-16.295-10.942-26.694-10.942
			c-10.403,0-19.838,4.166-26.7,10.947V466.361h53.394V579.041L348.717,579.041z M377.271,455.11H202.137V329.601
			c0-19.011,5.986-37.09,17.314-52.284c3.751-5.037,8.058-9.659,12.824-13.803c4.13,28.344,28.651,49.611,57.422,49.611
			c28.773,0,53.302-21.27,57.436-49.614c3.792,3.083,10.804,11.217,10.804,11.217c12.648,15.703,19.333,34.676,19.333,54.872V455.11
			z M384.308,301.13l19.888,19.888l-15.671,16.292v-7.709C388.523,319.914,387.076,310.317,384.308,301.13z M397.575,383.061
			l-9.051-9.051v-20.467l23.629-24.567l15.644,15.644C413.552,354.379,402.845,367.735,397.575,383.061z M484.276,470.522
			c-2.017,0-4.062-0.066-6.075-0.196c-5.31-0.342-9.545-4.529-10.07-9.961l-0.038-0.377c-1.879-17.571-16.615-31.586-34.278-32.6
			c-0.719-0.041-1.433-0.062-2.144-0.062c-3.523,0-7.01,0.501-10.362,1.49c-1.066,0.315-2.162,0.474-3.258,0.474
			c-4.652,0-8.57-2.723-9.984-6.934c-1.919-5.718-2.892-11.655-2.892-17.646c0-36.288,35.485-65.812,79.103-65.812
			s79.102,29.523,79.102,65.812C563.378,440.998,527.893,470.522,484.276,470.522z"/>
		<path d="M436.649,376.38c-11.957,0-21.685,9.728-21.685,21.685c0,11.959,9.728,21.687,21.685,21.687
			c11.959,0,21.687-9.728,21.687-21.687C458.336,386.106,448.608,376.38,436.649,376.38z M436.649,408.499
			c-5.753,0-10.433-4.681-10.433-10.434c0-5.753,4.68-10.433,10.433-10.433s10.434,4.681,10.434,10.433
			C447.083,403.818,442.402,408.499,436.649,408.499z"/>
		<ellipse cx="504.766" cy="443.517" rx="18.828" ry="11.587"/>
		<ellipse cx="530.24" cy="411.398" rx="18.828" ry="11.587"/>
		<ellipse cx="518.057" cy="374.848" rx="18.828" ry="11.587"/>
		<ellipse cx="478.184" cy="358.235" rx="18.828" ry="11.587"/>
	</g>
</g>
</svg>