<?xml version="1.0" ?><svg  fill="#fff" enable-background="new 0 0 32 32" version="1.1" viewBox="0 0 32 32" xml:space="preserve" xmlns="http://www.w3.org/2000/svg" xmlns:xlink="http://www.w3.org/1999/xlink"><g id="Layer_1"/><g id="Capa_2"><g><path d="M27.919,7.786l0.327,0.036l0.036,0.327c0.017,0.157,0.15,0.276,0.308,0.276c0.158,0,0.29-0.118,0.307-0.276l0.036-0.327    l0.327-0.036c0.157-0.017,0.276-0.149,0.276-0.307c0-0.157-0.118-0.29-0.275-0.307l-0.327-0.037l-0.036-0.327    c-0.017-0.157-0.15-0.276-0.307-0.276c-0.158,0-0.29,0.118-0.308,0.276l-0.036,0.327l-0.327,0.037    c-0.157,0.017-0.275,0.15-0.275,0.307C27.643,7.637,27.762,7.769,27.919,7.786z"/><path d="M29.078,16.578c0-0.446-0.032-0.885-0.078-1.32c0-0.022-0.005-0.042-0.009-0.064c-0.599-5.312-4.588-9.713-9.941-10.722    l-0.344-0.059c-0.004-0.001-0.008-0.002-0.012-0.002l-0.055-0.01C18.636,4.4,18.632,4.4,18.628,4.399    c-0.624-0.096-1.262-0.145-1.898-0.145c-5.373,0-10.095,3.432-11.75,8.54c-0.23,0.71-0.396,1.448-0.494,2.193    c-0.07,0.532-0.105,1.075-0.105,1.615c0,0.157,0.003,0.314,0.009,0.47c0.078,2.059,0.674,4.079,1.725,5.843    c0.015,0.025,0.033,0.05,0.054,0.071c0.004,0.004,0.008,0.009,0.013,0.013c0.117,0.122,0.213,0.241,0.293,0.363    c1.007,1.524,2.326,2.757,3.827,3.684c0.048,0.05,0.106,0.087,0.174,0.108c1.875,1.114,4.029,1.744,6.284,1.744    c4.341,0,8.28-2.218,10.528-5.907c0.023-0.023,0.043-0.049,0.059-0.077c1.133-1.903,1.733-4.085,1.733-6.323V16.578z     M28.15,15.118c-0.28,0.299-0.647,0.725-0.778,1.037c-0.026,0.024-0.13,0.057-0.192,0.077c-0.183,0.058-0.433,0.137-0.553,0.395    c-0.077,0.165-0.074,0.353,0.01,0.557c0.15,0.365,0.241,1.282-0.229,1.752c-0.629,0.629-1.018,1.241-1.018,2.347    c0,0.828-0.7,1.872-1.356,2.785c-0.075,0.104-0.156,0.208-0.245,0.313c-0.088,0.105-0.181,0.208-0.277,0.309    c-0.151,0.157-0.306,0.305-0.463,0.439c-0.241,0.124-0.493,0.242-0.767,0.363c-0.095,0.042-0.191,0.083-0.287,0.122    c-0.051-0.09-0.119-0.229-0.202-0.437c-0.281-0.71-0.528-1.717-0.528-2.157c0-0.287,0.072-0.449,0.162-0.654    c0.1-0.228,0.214-0.485,0.214-0.88c0-0.462-0.228-0.76-0.394-0.977c-0.141-0.184-0.214-0.288-0.214-0.441    c0-0.753-0.414-1.164-0.746-1.495l-0.041-0.041c-0.372-0.373-0.921-0.146-1.501,0.093c-0.317,0.13-0.677,0.278-0.904,0.278    c-0.452,0-1.246-0.768-1.677-1.456c-0.348-0.557-0.192-2.665,0.474-3.156c0.975-0.719,1.262-1.523,1.274-1.557    c0.062-0.18-0.007-0.38-0.167-0.483c-0.291-0.186-0.343-0.377-0.357-0.505c-0.047-0.433,0.325-0.985,0.57-1.23    c0.105-0.105,0.527-0.141,0.779-0.164c0.387-0.033,0.722-0.062,0.929-0.271c0.307-0.306,0.227-0.705,0.168-0.996    c-0.024-0.122-0.048-0.237-0.05-0.316c0.031-0.085,0.349-0.359,1.087-0.617c0.649-0.228,1.611-1.177,1.695-1.263l0.158-0.135    C25.67,8.543,27.701,11.608,28.15,15.118z M16.73,5.078c0.423,0,0.843,0.031,1.256,0.076l-0.205,0.36    c-0.01,0.016-1.02,1.588-2.39,1.842c-1.618,0.299-1.82,0.443-2.272,0.896c-0.13,0.13-0.274,0.162-0.287,0.168    c-0.006-0.009-0.022-0.052-0.022-0.137c0-0.174,0.04-0.36,0.075-0.523c0.064-0.299,0.137-0.638-0.131-0.862    c-0.279-0.234-0.665-0.077-0.831-0.01L11.77,6.949c-0.545,0.219-1.016,0.408-1.107,0.851c-0.052,0.257,0.056,0.479,0.169,0.634    c-0.323,0.132-0.857,0.443-0.623,1.187c0.083,0.267,0.165,0.471,0.232,0.636c0.049,0.121,0.11,0.273,0.111,0.309    c-0.001,0.001-0.014,0.035-0.096,0.117c-0.004,0.004-0.008,0.008-0.012,0.011c-0.035-0.02-0.083-0.052-0.119-0.077    c-0.161-0.109-0.381-0.259-0.678-0.259c-0.649,0-0.65,0.65-0.65,0.863c0,0.071,0,0.194-0.012,0.249    c-0.059,0.008-0.162,0.01-0.234,0.011c-0.275,0.004-0.651,0.01-0.987,0.226c-0.271,0.175-0.463,0.456-0.57,0.833    c-0.05,0.176-0.131,0.354-0.24,0.529c-0.028,0.044-0.057,0.087-0.087,0.13c-0.062,0.087-0.13,0.171-0.203,0.252    c-0.037,0.042-0.075,0.082-0.114,0.121c-0.117,0.119-0.248,0.234-0.387,0.342c-0.047,0.036-0.095,0.071-0.142,0.105    c-0.185,0.132-0.383,0.25-0.589,0.354c0.088-0.449,0.193-0.895,0.333-1.327C7.309,8.281,11.715,5.078,16.73,5.078z M7.162,22.907    c-0.103-0.156-0.222-0.305-0.363-0.455c-0.966-1.636-1.513-3.506-1.585-5.41c-0.004-0.12-0.006-0.24-0.007-0.36    c0.017,0.056,0.036,0.111,0.057,0.166c0.039,0.099,0.084,0.196,0.137,0.288c0.092,0.163,0.205,0.312,0.336,0.443    c0.055,0.055,0.117,0.1,0.194,0.141c0.011,0.005,0.052,0.023,0.063,0.028c0.045,0.017,0.091,0.03,0.141,0.039    c0.059,0.01,0.119,0.015,0.188,0.01c0.065-0.003,0.133-0.014,0.197-0.028l0.146-0.035l-0.101-0.4l0.154,0.387l0.067-0.014    c0.127-0.026,0.208-0.021,0.29,0.016c0.209,0.093,0.622,0.339,1.077,0.642c0.197,0.131,0.393,0.268,0.569,0.396    c0.343,0.251,0.489,0.383,0.546,0.439c0.105,0.105,0.139,0.195,0.187,0.32c0.082,0.216,0.194,0.51,0.641,0.74    c0.146,0.075,0.352,0.157,0.591,0.252c0.388,0.154,1.418,0.563,1.501,0.8c0,0.195-0.061,0.267-0.172,0.398    c-0.122,0.143-0.306,0.36-0.306,0.717c0,0.077,0.008,0.164,0.024,0.259c0.017,0.104,0.043,0.22,0.07,0.341    c0.073,0.325,0.174,0.771,0.027,0.918c-0.126,0.126-0.275,0.191-0.448,0.267c-0.307,0.135-0.688,0.302-0.948,0.826    c-0.076,0.156-0.143,0.6-0.188,1.006C9.046,25.216,7.993,24.164,7.162,22.907z M28.253,16.602c0,2.077-0.559,4.114-1.606,5.862    c-0.022,0.022-0.041,0.047-0.057,0.074c-2.105,3.466-5.781,5.536-9.832,5.536c-2.051,0-4.015-0.556-5.733-1.547    c0.031-0.362,0.109-1.003,0.149-1.124c0.126-0.255,0.281-0.323,0.539-0.436c0.207-0.091,0.464-0.204,0.7-0.439    c0.468-0.469,0.31-1.17,0.195-1.682c-0.024-0.105-0.046-0.204-0.061-0.294c-0.007-0.046-0.013-0.088-0.013-0.124    c0-0.045,0.009-0.064,0.11-0.183c0.147-0.173,0.368-0.434,0.368-0.932c0-0.765-1.074-1.191-2.021-1.567    c-0.21-0.083-0.409-0.162-0.519-0.219c-0.165-0.085-0.184-0.135-0.247-0.299c-0.061-0.16-0.144-0.38-0.374-0.609    c-0.13-0.13-0.347-0.307-0.643-0.523c-0.185-0.135-0.39-0.278-0.597-0.416c-0.24-0.16-0.837-0.549-1.2-0.71    c-0.316-0.141-0.599-0.108-0.784-0.072L6.35,16.961c-0.018,0.004-0.035,0.008-0.054,0.01c-0.068-0.072-0.127-0.153-0.177-0.242    c-0.033-0.058-0.062-0.12-0.086-0.182c-0.017-0.043-0.032-0.087-0.045-0.131l-0.019-0.069c-0.024-0.094-0.041-0.19-0.052-0.286    c-0.042-0.364-0.003-0.74,0.05-1.034c0.184-0.102,0.363-0.213,0.533-0.334c0.056-0.04,0.112-0.081,0.167-0.124    c0.169-0.13,0.326-0.27,0.47-0.414c0.049-0.05,0.096-0.1,0.142-0.151c0.093-0.104,0.179-0.211,0.258-0.321    c0.04-0.056,0.078-0.113,0.115-0.171c0.152-0.242,0.265-0.492,0.337-0.744c0.051-0.182,0.124-0.301,0.223-0.365    c0.137-0.088,0.348-0.091,0.552-0.094c0.27-0.004,0.577-0.008,0.799-0.23c0.242-0.241,0.258-0.569,0.26-0.804    c0.014,0.009,0.027,0.018,0.04,0.027c0.204,0.139,0.68,0.463,1.177-0.034c0.497-0.497,0.344-0.877,0.167-1.317    c-0.06-0.149-0.134-0.332-0.21-0.574c-0.018-0.057-0.018-0.089-0.021-0.089c0,0,0,0,0,0c0.032-0.042,0.192-0.098,0.277-0.128    c0.212-0.075,0.504-0.177,0.574-0.488c0.071-0.313-0.161-0.545-0.238-0.621c-0.033-0.033-0.057-0.06-0.074-0.081    c0.117-0.072,0.347-0.166,0.534-0.242c-0.033,0.165-0.064,0.355-0.064,0.557c0,0.607,0.357,0.821,0.511,0.885    c0.37,0.153,0.854,0.019,1.206-0.332c0.316-0.317,0.401-0.402,1.839-0.668c1.721-0.319,2.888-2.135,2.947-2.228l0.377-0.662    l0.036,0.006c1.086,0.205,2.109,0.565,3.056,1.046c-0.365,0.359-1.015,0.923-1.358,1.043c-0.747,0.261-1.637,0.712-1.637,1.374    c0,0.183,0.034,0.352,0.064,0.5c0.016,0.078,0.038,0.19,0.051,0.233c-0.097,0.022-0.281,0.038-0.411,0.05    c-0.456,0.039-0.974,0.085-1.291,0.402c-0.34,0.34-0.891,1.123-0.807,1.902c0.027,0.248,0.128,0.578,0.436,0.877    c-0.139,0.229-0.402,0.58-0.855,0.915c-1.053,0.777-1.228,3.385-0.684,4.257c0.399,0.638,1.409,1.844,2.377,1.844    c0.39,0,0.811-0.173,1.218-0.34c0.209-0.086,0.515-0.212,0.651-0.226c0.309,0.308,0.498,0.518,0.498,0.906    c0,0.44,0.212,0.718,0.383,0.942c0.148,0.193,0.225,0.302,0.225,0.477c0,0.221-0.06,0.358-0.144,0.547    c-0.104,0.235-0.232,0.526-0.232,0.987c0,0.607,0.304,1.75,0.586,2.461c0.168,0.424,0.329,0.709,0.489,0.869    c0.051,0.052,0.11,0.095,0.174,0.126c0.058,0.029,0.121,0.044,0.185,0.044c0.05,0,0.101-0.009,0.149-0.028    c0.199-0.077,0.396-0.159,0.591-0.245c0.307-0.135,0.586-0.267,0.864-0.411c0.025-0.013,0.049-0.03,0.07-0.048    c0.191-0.161,0.38-0.339,0.561-0.528c0.109-0.114,0.214-0.231,0.312-0.348c0.102-0.12,0.197-0.242,0.284-0.363    c0.731-1.018,1.511-2.193,1.511-3.266c0-0.835,0.262-1.249,0.777-1.764c0.679-0.679,0.683-1.808,0.46-2.507    c0.204-0.065,0.524-0.177,0.67-0.517c0.022-0.05,0.065-0.12,0.12-0.199c0.002,0.095,0.013,0.188,0.013,0.283V16.602z"/><path d="M25.149,3.868c0.527,0,1.023-0.205,1.395-0.578c0.12-0.12,0.224-0.254,0.309-0.4c0.067-0.114,0.095-0.238,0.136-0.36    c0.046-0.076,0.082-0.158,0.097-0.251c0-0.002-0.002-0.004-0.002-0.006c0.123-0.631-0.067-1.3-0.541-1.774    c-0.387-0.387-0.903-0.559-1.422-0.553c-0.018-0.004-0.029-0.022-0.048-0.023c-0.105-0.009-0.201,0.007-0.291,0.035    c-0.218,0.041-0.431,0.116-0.63,0.232c-0.146,0.085-0.281,0.19-0.4,0.309c-0.373,0.373-0.578,0.868-0.578,1.395    c0,0.528,0.205,1.023,0.578,1.396C24.127,3.662,24.622,3.868,25.149,3.868z M26.107,0.936c0.333,0.333,0.458,0.806,0.362,1.248    c-0.192-0.022-0.689-0.264-1.099-0.683c-0.348-0.355-0.454-0.829-0.423-0.936c0.067-0.01,0.133-0.026,0.2-0.026    C25.498,0.539,25.846,0.675,26.107,0.936z M24.192,0.936c0.048-0.048,0.106-0.084,0.161-0.125    c0.059,0.386,0.278,0.819,0.576,1.123c0.338,0.344,0.834,0.682,1.264,0.808c-0.029,0.036-0.052,0.077-0.085,0.109    c-0.512,0.512-1.404,0.512-1.916,0c-0.256-0.256-0.397-0.596-0.397-0.958C23.794,1.532,23.935,1.192,24.192,0.936z"/><path d="M5.975,1.742l0.838,0.093l0.093,0.839c0.017,0.157,0.15,0.276,0.308,0.276c0.158,0,0.29-0.119,0.307-0.276l0.093-0.839    l0.838-0.093c0.157-0.017,0.275-0.149,0.275-0.307c0-0.157-0.119-0.29-0.275-0.307L7.614,1.034L7.521,0.196    c-0.017-0.157-0.15-0.275-0.307-0.275c-0.158,0-0.29,0.118-0.308,0.275L6.813,1.034L5.975,1.127    c-0.157,0.017-0.275,0.15-0.275,0.307C5.699,1.593,5.818,1.725,5.975,1.742z"/><path d="M18.408,3.266c0.06,0.06,0.14,0.091,0.219,0.091c0.079,0,0.158-0.03,0.219-0.091l0.408-0.408    c0.121-0.121,0.121-0.317,0-0.437l-0.408-0.408c-0.058-0.058-0.137-0.091-0.219-0.091c-0.082,0-0.161,0.033-0.219,0.091L18,2.421    c-0.058,0.058-0.091,0.137-0.091,0.219c0,0.082,0.033,0.161,0.091,0.219L18.408,3.266z"/><path d="M31.134,13.457l-0.408-0.408c-0.121-0.121-0.317-0.121-0.437,0l-0.408,0.408c-0.058,0.058-0.091,0.137-0.091,0.219    c0,0.082,0.033,0.161,0.091,0.219l0.408,0.408c0.06,0.06,0.14,0.091,0.219,0.091s0.158-0.03,0.219-0.091l0.408-0.408    C31.255,13.774,31.255,13.578,31.134,13.457z"/><path d="M8.765,4.185l0.408,0.408c0.06,0.06,0.14,0.091,0.219,0.091S9.55,4.654,9.61,4.593l0.408-0.408    c0.058-0.058,0.091-0.137,0.091-0.219c0-0.082-0.033-0.161-0.091-0.219L9.61,3.339c-0.116-0.116-0.322-0.116-0.438,0L8.764,3.748    C8.644,3.869,8.644,4.064,8.765,4.185z"/><path d="M4.307,11.714c0.06,0.06,0.14,0.091,0.219,0.091c0.079,0,0.158-0.03,0.219-0.091l0.408-0.408    c0.058-0.058,0.091-0.137,0.091-0.219s-0.033-0.161-0.091-0.219L4.745,10.46c-0.121-0.121-0.317-0.121-0.437,0l-0.408,0.408    c-0.058,0.058-0.091,0.137-0.091,0.219s0.033,0.161,0.091,0.219L4.307,11.714z"/><path d="M1.712,15.143c-0.121-0.121-0.317-0.121-0.437,0l-0.408,0.408c-0.121,0.121-0.121,0.317,0,0.437l0.408,0.408    c0.058,0.058,0.137,0.091,0.219,0.091c0.082,0,0.161-0.033,0.219-0.091l0.408-0.408c0.058-0.058,0.091-0.137,0.091-0.219    c0-0.082-0.033-0.161-0.091-0.219L1.712,15.143z"/><path d="M15.841,1.366c0.06,0.06,0.14,0.091,0.219,0.091s0.158-0.03,0.219-0.091l0.408-0.408c0.058-0.058,0.091-0.137,0.091-0.219    c0-0.082-0.033-0.161-0.091-0.219l-0.408-0.408c-0.121-0.121-0.317-0.121-0.437,0l-0.408,0.408c-0.121,0.121-0.121,0.317,0,0.437    L15.841,1.366z"/><path d="M9.202,28.808c-0.058-0.058-0.137-0.091-0.219-0.091s-0.161,0.033-0.219,0.091l-0.408,0.408    c-0.058,0.058-0.091,0.137-0.091,0.219c0,0.082,0.033,0.161,0.091,0.219l0.408,0.408c0.06,0.06,0.14,0.091,0.219,0.091    s0.158-0.03,0.219-0.091l0.408-0.408c0.121-0.121,0.121-0.317,0-0.437L9.202,28.808z"/><path d="M6.635,26.909c-0.121-0.121-0.317-0.121-0.437,0L5.79,27.317c-0.121,0.121-0.121,0.317,0,0.437l0.408,0.408    c0.06,0.06,0.14,0.091,0.219,0.091s0.158-0.03,0.219-0.091l0.408-0.408c0.058-0.058,0.091-0.137,0.091-0.219    s-0.033-0.161-0.091-0.219L6.635,26.909z"/><path d="M29.88,26.463l-0.352-0.039l-0.039-0.352c-0.017-0.157-0.15-0.276-0.307-0.276c-0.158,0-0.29,0.118-0.307,0.275    l-0.039,0.352l-0.352,0.039c-0.157,0.017-0.275,0.149-0.275,0.307c0,0.157,0.118,0.29,0.275,0.307l0.352,0.039l0.039,0.352    c0.018,0.157,0.15,0.275,0.307,0.275c0.158,0,0.29-0.119,0.307-0.276l0.039-0.352l0.352-0.039c0.157-0.017,0.275-0.15,0.275-0.307    C30.155,26.613,30.036,26.481,29.88,26.463z"/><path d="M4.56,24.231l-0.521-0.058l-0.058-0.521c-0.017-0.157-0.15-0.276-0.308-0.276c-0.158,0-0.29,0.118-0.307,0.275    l-0.058,0.522l-0.522,0.058c-0.157,0.017-0.275,0.15-0.275,0.307c0,0.158,0.119,0.29,0.276,0.307l0.521,0.058l0.058,0.522    c0.017,0.157,0.15,0.275,0.307,0.275c0.158,0,0.29-0.119,0.308-0.276l0.058-0.521l0.521-0.058    c0.157-0.017,0.275-0.149,0.275-0.307C4.835,24.38,4.717,24.248,4.56,24.231z"/><path d="M19.355,30.736c-0.121-0.121-0.317-0.121-0.437,0l-0.408,0.408c-0.058,0.058-0.091,0.137-0.091,0.219    c0,0.082,0.033,0.161,0.091,0.219l0.408,0.408c0.06,0.06,0.14,0.091,0.219,0.091c0.079,0,0.158-0.03,0.219-0.091l0.408-0.408    c0.121-0.121,0.121-0.317,0-0.437L19.355,30.736z"/><path d="M22.33,28.616c-0.058-0.058-0.137-0.091-0.219-0.091s-0.161,0.033-0.219,0.091l-0.408,0.408    c-0.058,0.058-0.091,0.137-0.091,0.219c0,0.082,0.033,0.161,0.091,0.219l0.408,0.408c0.06,0.06,0.14,0.091,0.219,0.091    s0.158-0.03,0.219-0.091l0.408-0.408c0.121-0.121,0.121-0.317,0-0.437L22.33,28.616z"/></g></g></svg>