<?xml version="1.0" ?><svg fill="#fff" data-name="Layer 1" id="Layer_1" viewBox="0 0 512 512" xmlns="http://www.w3.org/2000/svg"><path d="M278.18,216.55a5.15,5.15,0,0,0-6.33-8.13,26.74,26.74,0,0,1-31.69,0,5.15,5.15,0,0,0-6.35,8.11,37,37,0,0,0,44.37,0Z"/><path d="M373.63,406.53,369.77,317a46.85,46.85,0,0,0-38.09-43.64l-52.55-10v-7.28A58.48,58.48,0,0,0,290,251.59a105.53,105.53,0,0,0,15.51,1.06,134.83,134.83,0,0,0,41.26-6.58,5.15,5.15,0,0,0,3.5-4.07c.62-3.79,14.69-93.24-26.07-141.22C307.84,81.48,284.88,71.7,256,71.7s-51.84,9.78-68.24,29.08c-40.77,48-26.7,137.43-26.08,141.22a5.16,5.16,0,0,0,3.51,4.07c28,9,50.71,6.48,57.27,5.44a58.7,58.7,0,0,0,11,4.63v7.27l-12.42,2.33-.11,0-40.68,7.63a46.88,46.88,0,0,0-38.08,43.69l-3.84,89.4a32.11,32.11,0,0,0,32.08,33.82H341.54a32.14,32.14,0,0,0,32.09-33.77ZM171.42,237.21c-2.08-16.09-9.43-90.21,24.2-129.77C210,90.56,230.29,82,256,82s46,8.56,60.37,25.44C350,147,342.65,221.12,340.58,237.21a124,124,0,0,1-37.85,5.06,58,58,0,0,0,17.6-41.8V134.24a5.15,5.15,0,0,0-9-3.41c-36.06,40.66-112.44,31.42-113.21,31.33a5.11,5.11,0,0,0-4.06,1.24,5.17,5.17,0,0,0-1.75,3.87v33.2a58,58,0,0,0,17.6,41.8A123.35,123.35,0,0,1,171.42,237.21Zm31.19-36.74V172.94c17.9,1.39,72.31,2.79,107.42-26.54v54.07a47.62,47.62,0,0,1-22.5,40.65A5.14,5.14,0,0,0,285,242.6a48,48,0,0,1-12.13,4.56,5.15,5.15,0,0,0-4,5v11.73a9.71,9.71,0,0,0,7.91,9.54l1.66.32L256,292.41l-22.29-18.55,2.18-.41a9.72,9.72,0,0,0,7.92-9.55V252.18a5.14,5.14,0,0,0-4-5A47.67,47.67,0,0,1,202.61,200.47ZM189.79,323.86a3.6,3.6,0,0,1,3.6-3.6H318.61a3.6,3.6,0,0,1,3.6,3.6v84H189.79ZM311.4,430H190.81a8.09,8.09,0,0,1-8.08-8.08v-3.79H329.27v3.79a8.1,8.1,0,0,1-8.08,8.08Zm46-6.81A21.62,21.62,0,0,1,341.54,430H337.7a18.28,18.28,0,0,0,1.87-8.08V413a5.15,5.15,0,0,0-5.15-5.15h-1.91V396.67h12.73a5.16,5.16,0,0,0,0-10.31H332.51v-62.5a13.91,13.91,0,0,0-13.9-13.9H193.39a13.91,13.91,0,0,0-13.9,13.9v62.5H166.76a5.16,5.16,0,0,0,0,10.31h12.73v11.16h-1.92a5.16,5.16,0,0,0-5.15,5.15v8.94A18.29,18.29,0,0,0,174.3,430h-3.84a21.82,21.82,0,0,1-21.79-23l3.85-89.4a36.57,36.57,0,0,1,29.7-34.06l38.34-7.19,32.14,26.76a5.16,5.16,0,0,0,6.59,0l32.23-26.82,38.24,7.25a36.56,36.56,0,0,1,29.72,34l3.85,89.5A21.62,21.62,0,0,1,357.37,423.19Z"/><path d="M256,349.69c-18.79,0-33,8.42-33,19.58s14.18,19.58,33,19.58,33-8.41,33-19.58S274.79,349.69,256,349.69Zm0,28.86c-13.63,0-22.66-5.58-22.66-9.28s9-9.28,22.66-9.28,22.66,5.59,22.66,9.28S269.62,378.55,256,378.55Z"/><path d="M225.93,178.62a5.15,5.15,0,0,0-5.15,5.15v6.3a5.15,5.15,0,0,0,10.3,0v-6.3A5.16,5.16,0,0,0,225.93,178.62Z"/><path d="M286.07,195.22a5.15,5.15,0,0,0,5.15-5.15v-6.3a5.15,5.15,0,0,0-10.3,0v6.3A5.15,5.15,0,0,0,286.07,195.22Z"/></svg>