<?xml version="1.0" ?><svg data-name="Layer 1" id="Layer_1" fill="#fff" viewBox="0 0 512 512" xmlns="http://www.w3.org/2000/svg"><title/><path d="M286.25,275.7a4.92,4.92,0,0,0-6.37-2.79,65.56,65.56,0,0,1-47.76,0,4.91,4.91,0,0,0-3.58,9.14,75.37,75.37,0,0,0,54.92,0A4.91,4.91,0,0,0,286.25,275.7Z"/><path d="M396.72,327.83l-13.57-76.95V188.3a127.15,127.15,0,0,0-254.3,0l.08,61.73-13.65,77.8a4.83,4.83,0,0,0,1,4,4.92,4.92,0,0,0,3.71,1.78l84.55,1.26-36.71,17.32a51.26,51.26,0,0,0-29.23,46.16v47.62a4.91,4.91,0,0,0,9.81,0V398.32c0-.32,0-.64,0-1L178.14,417v29a4.91,4.91,0,0,0,9.81,0V414.31a4.92,4.92,0,0,0-2.2-4.09l-35.61-23.53A41.39,41.39,0,0,1,172.06,361L195,350.2c3.65,13.34,16.64,42,61,42s57.34-28.67,61-42L339.94,361a41.46,41.46,0,0,1,21.92,25.67l-35.63,23.53a4.94,4.94,0,0,0-2.19,4.09v31.63a4.91,4.91,0,0,0,9.81,0V417l29.67-19.59c0,.32,0,.64,0,1v47.62a4.9,4.9,0,1,0,9.8,0V398.32a51.31,51.31,0,0,0-29.23-46.17l-39.38-18.57H391.9a4.9,4.9,0,0,0,4.82-5.75ZM256,382.4c-40.56,0-50-26.84-52-36.42l27.27-12.86c.12-.06.23-.15.35-.22l.37-.22a5.19,5.19,0,0,0,.45-.37,3,3,0,0,0,.26-.24,5.32,5.32,0,0,0,.38-.45,3.21,3.21,0,0,0,.21-.3,4.67,4.67,0,0,0,.27-.49,4,4,0,0,0,.17-.36c.06-.17.11-.34.16-.52s.07-.26.1-.39.05-.39.06-.58,0-.2,0-.3,0-.06,0-.09a3.31,3.31,0,0,0-.06-.54,3.47,3.47,0,0,0-.06-.45c0-.13-.08-.25-.12-.38a5.31,5.31,0,0,0-.2-.56s0-.05,0-.08-.1-.15-.15-.24a3.86,3.86,0,0,0-.31-.51,2.78,2.78,0,0,0-.26-.32,4.49,4.49,0,0,0-.36-.39,4.15,4.15,0,0,0-.32-.27,5,5,0,0,0-.44-.32,3.65,3.65,0,0,0-.34-.18,4.59,4.59,0,0,0-.5-.24c-.13-.05-.26-.08-.4-.12a4.07,4.07,0,0,0-.5-.13c-.18,0-.36,0-.54-.06s-.21,0-.32,0A55.21,55.21,0,0,1,174,268.63V180.44c16.88,13.13,57.78,41.16,104.16,45.48V247.1a4.91,4.91,0,1,0,9.81,0V226.46A112.11,112.11,0,0,0,338,216v52.6a55.21,55.21,0,0,1-55.15,55.14,3.41,3.41,0,0,0-.46.05c-.12,0-.24,0-.35,0a4.55,4.55,0,0,0-.66.17l-.24.08a4.39,4.39,0,0,0-.62.29l-.24.13a5.88,5.88,0,0,0-.51.36l-.26.22q-.21.21-.39.42l-.25.3a5.64,5.64,0,0,0-.31.53c-.05.08-.1.15-.14.23a.26.26,0,0,0,0,.08,5.31,5.31,0,0,0-.2.56c0,.13-.09.25-.12.38s0,.3-.06.45a5,5,0,0,0-.06.54s0,.06,0,.09,0,.19,0,.3,0,.38.06.58.07.26.1.39.1.35.16.52a4,4,0,0,0,.17.36c.09.17.17.33.27.49l.21.3a5.32,5.32,0,0,0,.38.45,3,3,0,0,0,.26.24,5.19,5.19,0,0,0,.45.37l.37.22c.12.07.23.16.35.22L308,346C306.05,355.55,296.82,382.4,256,382.4Zm61.11-58.63a65,65,0,0,0,30.7-55.14V208a4.91,4.91,0,0,0-7.3-4.28c-77.93,43.51-167.21-36.48-168.1-37.29a4.91,4.91,0,0,0-8.22,3.62v98.57a65,65,0,0,0,32.62,56.29l-70.88-1.06,12.73-73V188.3a117.34,117.34,0,0,1,234.68,0l.08,63.42,12.64,72Z"/><path d="M228.92,252a4.91,4.91,0,0,0,4.91-4.91V225.68a4.91,4.91,0,0,0-9.81,0V247.1A4.91,4.91,0,0,0,228.92,252Z"/></svg>