<?xml version="1.0" ?><svg data-name="Layer 1" id="Layer_1" stroke="#fff"  fill="#fff" viewBox="0 0 512 512" xmlns="http://www.w3.org/2000/svg"><path d="M195,212.68a30,30,0,1,0-30-30A30,30,0,0,0,195,212.68Zm0-50a20.09,20.09,0,1,1-20.1,20.09A20.12,20.12,0,0,1,195,162.64Z"/><path d="M215.07,222.85V250a4.93,4.93,0,0,0,4.92,4.93h72A4.93,4.93,0,0,0,297,250V222.85a4.93,4.93,0,0,0-4.93-4.92H220A4.92,4.92,0,0,0,215.07,222.85Zm9.85,4.93h62.17v17.28H224.92Z"/><path d="M463,333.62a42.84,42.84,0,0,0-32.76-12.47c-4.51-6.66-18.9-25.18-41.8-29.79l11.18-12.78a4.93,4.93,0,0,0-.58-7.05c-12.28-10.13-24.11-14.58-33.38-16.42a82.43,82.43,0,0,0,10.69-8.5,4.89,4.89,0,0,0,1.54-3.58v-9.8h23.59a4.93,4.93,0,0,0,4.93-4.93V202.9h26.25a4.93,4.93,0,0,0,0-9.86H406.41v-25.4a4.93,4.93,0,0,0-4.93-4.93H377.89V152.9a4.89,4.89,0,0,0-1.54-3.57c-32.67-31-97.16-34.92-115.5-35.55a5.29,5.29,0,0,0,.08-.9V98.41a25.26,25.26,0,1,0-9.85,0v14.47a5.71,5.71,0,0,0,.07.84c-18.33.54-82.85,4.66-115.5,35.61a4.89,4.89,0,0,0-1.54,3.57v9.81H110.52a4.93,4.93,0,0,0-4.93,4.93V193H79.34a4.93,4.93,0,0,0,0,9.86h26.25v25.4a4.93,4.93,0,0,0,4.93,4.93h23.59V243a4.89,4.89,0,0,0,1.54,3.58,82.43,82.43,0,0,0,10.69,8.5c-9.26,1.85-21.1,6.3-33.38,16.42a4.93,4.93,0,0,0-.58,7.05l11.18,12.78c-23.35,4.7-37.84,23.86-42,30.17C69.68,321,57.64,325,49,333.62a4.94,4.94,0,1,0,7,7,33,33,0,1,1,46.71,46.74,4.93,4.93,0,0,0,0,7,4.86,4.86,0,0,0,3.47,1.44,5,5,0,0,0,3.5-1.45,43,43,0,0,0,9.8-45.42,4.85,4.85,0,0,0,.6-.67c.49-.66,11.58-15.31,36.71-15.9-.2,8.91,0,18.39.59,28.29-1.4,4.47-6.52,23.37-6.78,60.95a34.24,34.24,0,0,0-16.49,29.26v7.86A4.93,4.93,0,0,0,139,463.6H217a4.93,4.93,0,0,0,4.93-4.93v-7.86a34.16,34.16,0,0,0-13-26.83,132.52,132.52,0,0,1,6.95-29.38h80.38A132.52,132.52,0,0,1,303.14,424a34.16,34.16,0,0,0-13,26.83v7.86a4.93,4.93,0,0,0,4.93,4.93H373a4.93,4.93,0,0,0,4.93-4.93v-7.86a34.22,34.22,0,0,0-16.49-29.26c-.26-37.58-5.38-56.48-6.78-60.95.64-9.91.79-19.41.59-28.33,25.11.41,36.09,15.11,36.71,15.93a4.94,4.94,0,0,0,.6.68,43,43,0,0,0,9.8,45.42,5,5,0,0,0,3.5,1.45,4.86,4.86,0,0,0,3.47-1.44,4.93,4.93,0,0,0,0-7A33,33,0,1,1,456,340.6a4.94,4.94,0,0,0,7-7ZM388.76,276l-34.35,39.27a309.26,309.26,0,0,0-7.55-50.05c.92-.4,1.83-.8,2.73-1.22C352.83,263.6,369.49,262.09,388.76,276Zm-90.47,108.7H213.71l-46.6-26.46a324.35,324.35,0,0,1,7.31-89.37,211.46,211.46,0,0,0,31.51,8.38v43.19a17.3,17.3,0,0,0,17.29,17.29h65.56a17.3,17.3,0,0,0,17.29-17.29v-43.2a211.41,211.41,0,0,0,31.51-8.37,323.52,323.52,0,0,1,7.31,89.37ZM255.85,282.3h.31a287.6,287.6,0,0,0,40-3.33v41.51a7.44,7.44,0,0,1-7.43,7.43H223.22a7.44,7.44,0,0,1-7.43-7.43V279A286.06,286.06,0,0,0,255.85,282.3Zm140.7-109.73v50.8H377.89v-50.8ZM240.61,73.64A15.39,15.39,0,1,1,256,89,15.41,15.41,0,0,1,240.61,73.64ZM115.45,223.37v-50.8h18.66v50.8ZM144,228.3V155.07c35.17-31.27,110.6-31.58,112-31.58h0c1.43,0,76.83.31,112,31.58v85.8c-35.16,31.27-110.53,31.57-112,31.57H256c-1.24,0-46.39-.18-83.09-14.67l-.1,0C162,253.47,152,248,144,240.87ZM162.37,264c.92.42,1.84.83,2.77,1.23a309.46,309.46,0,0,0-7.55,50.05l-20-22.89a4.91,4.91,0,0,0-.7-.81L123.24,276C142.45,262.14,159.07,263.56,162.37,264ZM114.6,339.55a43.48,43.48,0,0,0-4.92-5.93,41.29,41.29,0,0,0-17.34-10.23c6.07-7.79,19.64-21.88,39-23.14l19.72,22.56C131.22,324.84,119.42,334.59,114.6,339.55ZM212,450.81v2.94H144v-2.94A24.38,24.38,0,0,1,157.3,429.1a4.35,4.35,0,0,0,.75-.37,24.26,24.26,0,0,1,10.29-2.28h19.33a24.2,24.2,0,0,1,13.26,3.94,1.64,1.64,0,0,0,.22.14A24.34,24.34,0,0,1,212,450.81Zm-24.35-34.22H168.34a34.18,34.18,0,0,0-7.83.92c.44-25.25,3.16-41.08,4.94-48.84l40.85,23.2a143.12,143.12,0,0,0-6.7,26.87A34.24,34.24,0,0,0,187.67,416.59ZM368,450.81v2.94H300v-2.94a24.35,24.35,0,0,1,10.88-20.28,1.64,1.64,0,0,0,.22-.14,24.2,24.2,0,0,1,13.26-3.94h19.34a24.25,24.25,0,0,1,10.25,2.26,4.83,4.83,0,0,0,.82.41A24.36,24.36,0,0,1,368,450.81Zm-24.36-34.22H324.33a34.24,34.24,0,0,0-11.93,2.15,143.12,143.12,0,0,0-6.7-26.87l40.85-23.2c1.78,7.76,4.5,23.59,4.94,48.83A34.15,34.15,0,0,0,343.67,416.59Zm58.65-83a43.53,43.53,0,0,0-4.92,5.92c-4.8-5-16.6-14.73-36.45-16.75l19.71-22.55c19.08,1.25,32.6,15.07,38.8,22.91A42.74,42.74,0,0,0,402.32,333.63Z"/><path d="M317,212.68a30,30,0,1,0-29.94-30A30,30,0,0,0,317,212.68Zm0-50A20.09,20.09,0,1,1,297,182.73,20.12,20.12,0,0,1,317,162.64Z"/></svg>