<?xml version="1.0" ?><svg data-name="Layer 1" id="Layer_1" fill="#fff" viewBox="0 0 512 512" xmlns="http://www.w3.org/2000/svg"><path d="M280.26,194.31a5.15,5.15,0,0,0-6.33-8.13,30.21,30.21,0,0,1-35.84,0,5.15,5.15,0,0,0-6.35,8.11,40.5,40.5,0,0,0,48.52,0Z"/><path d="M385.88,404.11l-4.28-99.25A51.37,51.37,0,0,0,339.83,257l-58.74-11.07v-9.48a63.64,63.64,0,0,0,45.69-61.32V107.83A36.84,36.84,0,0,0,290,71h-98.9a5.15,5.15,0,0,0-5.15,5.15v98.94a63.66,63.66,0,0,0,45.71,61.33l.06,9.37-14.33,2.69-.08,0L172.16,257a51.4,51.4,0,0,0-41.77,47.92l-4.27,99.15a35.07,35.07,0,0,0,35,36.91H350.86a35.06,35.06,0,0,0,35-36.86ZM290,81.33a26.53,26.53,0,0,1,26.5,26.5v33.88c-22.08,2.14-34.52-16.48-35.06-17.31a5.14,5.14,0,0,0-4.24-2.37,5.39,5.39,0,0,0-4.33,2.21c-13.4,19.29-56.55,16-76.61,12.44V81.33ZM237.93,227.45a53.42,53.42,0,0,1-41.69-52.33v-28c16.36,2.71,60.22,7.71,80.67-11.85,6.35,7,19.77,18.38,39.57,16.81v23.05a53.42,53.42,0,0,1-41.69,52.33,5.14,5.14,0,0,0-4,5v13.45a10.23,10.23,0,0,0,8.31,10l3,.57L256,278.26l-26-21.63,3.6-.68a10.22,10.22,0,0,0,8.33-10V232.47A5.14,5.14,0,0,0,237.93,227.45Zm87.29,180.11H186.78V319.83a4,4,0,0,1,4-4h130.5a4,4,0,0,1,4,4Zm-7.78,23.11H188.05a8.65,8.65,0,0,1-8.63-8.64v-4.16H332.58V422a8.65,8.65,0,0,1-8.64,8.64ZM368.83,423a24.59,24.59,0,0,1-18,7.72H340.79a18.76,18.76,0,0,0,2.1-8.64v-9.32a5.16,5.16,0,0,0-5.15-5.15h-2.22v-15h18.54a5.15,5.15,0,0,0,0-10.3H335.52V319.83a14.28,14.28,0,0,0-14.27-14.27H190.75a14.29,14.29,0,0,0-14.28,14.27v62.45H157.94a5.15,5.15,0,1,0,0,10.3h18.53v15h-2.21a5.16,5.16,0,0,0-5.15,5.15V422a18.76,18.76,0,0,0,2.1,8.64H161.14a24.76,24.76,0,0,1-24.73-26.12l4.27-99.15a41.11,41.11,0,0,1,33.4-38.29l42.77-8,35.85,29.84a5.17,5.17,0,0,0,6.6,0L295.23,259l42.67,8.09a41.09,41.09,0,0,1,33.41,38.24l4.28,99.25A24.56,24.56,0,0,1,368.83,423Z"/><path d="M256,347c-19.47,0-34.14,8.68-34.14,20.19s14.67,20.19,34.14,20.19,34.14-8.68,34.14-20.19S275.47,347,256,347Zm0,30.08c-14.55,0-23.84-5.86-23.84-9.89s9.29-9.89,23.84-9.89,23.84,5.86,23.84,9.89S270.55,377.05,256,377.05Z"/><path d="M222.65,157.9a5.15,5.15,0,0,0-5.15,5.15v6.29a5.15,5.15,0,1,0,10.3,0v-6.29A5.16,5.16,0,0,0,222.65,157.9Z"/><path d="M289.35,174.5a5.16,5.16,0,0,0,5.15-5.16v-6.29a5.15,5.15,0,1,0-10.3,0v6.29A5.15,5.15,0,0,0,289.35,174.5Z"/></svg>